<svg width="250" height="399" viewBox="0 0 250 399" fill="none" xmlns="http://www.w3.org/2000/svg">
<g filter="url(#filter0_d_26_201)">
<path d="M5 390.87C5 392.047 5.95344 393 7.12956 393H242.161C243.729 393 245 391.729 245 390.161V29C245 15.1929 233.807 4 220 4H30C16.1929 4 5 15.1929 5 29V390.87Z" fill="white"/>
<path d="M5.5 390.87C5.5 391.77 6.22958 392.5 7.12956 392.5H242.161C243.453 392.5 244.5 391.453 244.5 390.161V29C244.5 15.4691 233.531 4.5 220 4.5H30C16.469 4.5 5.5 15.469 5.5 29V390.87Z" stroke="#EBE9E9"/>
</g>
<defs>
<filter id="filter0_d_26_201" x="0" y="0" width="250" height="399" filterUnits="userSpaceOnUse" color-interpolation-filters="sRGB">
<feFlood flood-opacity="0" result="BackgroundImageFix"/>
<feColorMatrix in="SourceAlpha" type="matrix" values="0 0 0 0 0 0 0 0 0 0 0 0 0 0 0 0 0 0 127 0" result="hardAlpha"/>
<feOffset dy="1"/>
<feGaussianBlur stdDeviation="2.5"/>
<feColorMatrix type="matrix" values="0 0 0 0 0.105882 0 0 0 0 0.141176 0 0 0 0 0.184314 0 0 0 0.1 0"/>
<feBlend mode="normal" in2="BackgroundImageFix" result="effect1_dropShadow_26_201"/>
<feBlend mode="normal" in="SourceGraphic" in2="effect1_dropShadow_26_201" result="shape"/>
</filter>
</defs>
</svg>
